<svg width="20" height="20" viewBox="0 0 20 20" fill="none" xmlns="http://www.w3.org/2000/svg">
<path d="M13.3378 12.1262L10.5492 10.0348V5.77461C10.5492 5.34625 10.203 5 9.77461 5C9.34625 5 9 5.34625 9 5.77461V10.4222C9 10.6662 9.11465 10.8962 9.30984 11.0419L12.4082 13.3657C12.5476 13.4702 12.7103 13.5206 12.8722 13.5206C13.1084 13.5206 13.3408 13.4145 13.4927 13.21C13.7499 12.8683 13.6802 12.3827 13.3378 12.1262Z" fill="white"/>
<path d="M10 0C4.48566 0 0 4.48566 0 10C0 15.5143 4.48566 20 10 20C15.5143 20 20 15.5143 20 10C20 4.48566 15.5143 0 10 0ZM10 18.4508C5.34082 18.4508 1.54918 14.6592 1.54918 10C1.54918 5.34082 5.34082 1.54918 10 1.54918C14.66 1.54918 18.4508 5.34082 18.4508 10C18.4508 14.6592 14.6592 18.4508 10 18.4508Z" fill="white"/>
</svg>
